<svg width="32" height="32" viewBox="0 0 32 32" fill="none" xmlns="http://www.w3.org/2000/svg">
<path d="M0 16C0 7.16344 7.16344 0 16 0C24.8366 0 32 7.16344 32 16C32 24.8366 24.8366 32 16 32C7.16344 32 0 24.8366 0 16Z" fill="white"/>
<path d="M3 10.9428C3 9.31754 4.31754 8 5.94281 8H11.8284C13.4537 8 14.7712 9.31754 14.7712 10.9428V16.8284C14.7712 18.4537 13.4537 19.7712 11.8284 19.7712H5.94281C4.31754 19.7712 3 18.4537 3 16.8284V10.9428Z" fill="#DCCAFF"/>
<path d="M12.0497 24.774L6.36186 11.5902H9.6578L14.63 23.2673H12.6901L17.7376 11.5902H20.7698L15.0631 24.774H12.0497Z" fill="black"/>
<path d="M24.3002 25C23.4087 25 22.5863 24.8368 21.8329 24.5103C21.0921 24.1713 20.4832 23.6942 20.006 23.0789L21.7011 21.0449C22.0652 21.522 22.4482 21.8861 22.85 22.1372C23.2517 22.3758 23.6849 22.4951 24.1495 22.4951C25.3925 22.4951 26.0141 21.7668 26.0141 20.3103V14.0386H21.3809V11.5902H29.0463V20.1408C29.0463 21.7731 28.6445 22.991 27.841 23.7946C27.0374 24.5982 25.8571 25 24.3002 25Z" fill="black"/>
</svg>
