<svg width="32" height="32" viewBox="0 0 32 32" fill="none" xmlns="http://www.w3.org/2000/svg">
<path d="M2 10.1635C2 8.41636 3.41636 7 5.16354 7H11.4906C13.2378 7 14.6542 8.41636 14.6542 10.1635V16.4906C14.6542 18.2378 13.2378 19.6542 11.4906 19.6542H5.16354C3.41636 19.6542 2 18.2378 2 16.4906V10.1635Z" fill="#DCCAFF"/>
<path d="M11.7285 25.0322L5.61403 10.8595H9.15719L14.5023 23.4124H12.4169L17.843 10.8595H21.1027L14.968 25.0322H11.7285Z" fill="black"/>
<path d="M24.8978 25.2751C23.9395 25.2751 23.0554 25.0997 22.2455 24.7487C21.4492 24.3843 20.7945 23.8714 20.2816 23.21L22.1038 21.0233C22.4952 21.5362 22.9069 21.9277 23.3389 22.1976C23.7708 22.4541 24.2365 22.5823 24.7359 22.5823C26.0722 22.5823 26.7403 21.7995 26.7403 20.2337V13.4916H21.7596V10.8595H30V20.0515C30 21.8062 29.5681 23.1155 28.7042 23.9793C27.8404 24.8432 26.5716 25.2751 24.8978 25.2751Z" fill="black"/>
</svg>
