<svg width="50" height="57" viewBox="0 0 50 57" fill="none" xmlns="http://www.w3.org/2000/svg">
<g clip-path="url(#clip0_44_16)">
<path d="M10.7143 0C4.79911 0 0 4.78711 0 10.6875V46.3125C0 52.2129 4.79911 57 10.7143 57H42.8571H46.4286C48.404 57 50 55.408 50 53.4375C50 51.467 48.404 49.875 46.4286 49.875V42.75C48.404 42.75 50 41.158 50 39.1875V3.5625C50 1.59199 48.404 0 46.4286 0H42.8571H10.7143ZM10.7143 42.75H39.2857V49.875H10.7143C8.73884 49.875 7.14286 48.283 7.14286 46.3125C7.14286 44.342 8.73884 42.75 10.7143 42.75ZM14.2857 16.0312C14.2857 15.0516 15.0893 14.25 16.0714 14.25H37.5C38.4821 14.25 39.2857 15.0516 39.2857 16.0312C39.2857 17.0109 38.4821 17.8125 37.5 17.8125H16.0714C15.0893 17.8125 14.2857 17.0109 14.2857 16.0312ZM16.0714 21.375H37.5C38.4821 21.375 39.2857 22.1766 39.2857 23.1562C39.2857 24.1359 38.4821 24.9375 37.5 24.9375H16.0714C15.0893 24.9375 14.2857 24.1359 14.2857 23.1562C14.2857 22.1766 15.0893 21.375 16.0714 21.375Z" fill="#C5AEF3"/>
</g>
<defs>
<clipPath id="clip0_44_16">
<rect width="50" height="57" fill="white"/>
</clipPath>
</defs>
</svg>
