<svg width="50" height="40" viewBox="0 0 50 40" fill="none" xmlns="http://www.w3.org/2000/svg">
<g clip-path="url(#clip0_44_18)">
<path d="M25 2.5C24.3672 2.5 23.7422 2.60937 23.1484 2.82031L1.23436 10.7344C0.492169 11.0078 -1.8182e-05 11.7109 -1.8182e-05 12.5C-1.8182e-05 13.2891 0.492169 13.9922 1.23436 14.2656L5.75779 15.8984C4.47654 17.9141 3.74998 20.2969 3.74998 22.8047V25C3.74998 27.2187 2.90623 29.5078 2.00779 31.3125C1.49998 32.3281 0.921857 33.3281 0.249982 34.25C-1.81794e-05 34.5859 -0.0703307 35.0234 0.0702943 35.4219C0.210919 35.8203 0.539044 36.1172 0.945294 36.2188L5.94529 37.4688C6.27342 37.5547 6.62498 37.4922 6.91404 37.3125C7.20311 37.1328 7.40623 36.8359 7.46873 36.5C8.14061 33.1563 7.80467 30.1562 7.30467 28.0078C7.05467 26.8984 6.71873 25.7656 6.24998 24.7266V22.8047C6.24998 20.4453 7.04686 18.2187 8.42967 16.4375C9.43748 15.2266 10.7422 14.25 12.2734 13.6484L24.539 8.82812C25.1797 8.57812 25.9062 8.89063 26.1562 9.53125C26.4062 10.1719 26.0937 10.8984 25.4531 11.1484L13.1875 15.9687C12.2187 16.3516 11.3672 16.9375 10.6719 17.6562L23.1406 22.1563C23.7344 22.3672 24.3594 22.4766 24.9922 22.4766C25.625 22.4766 26.25 22.3672 26.8437 22.1563L48.7656 14.2656C49.5078 14 50 13.2891 50 12.5C50 11.7109 49.5078 11.0078 48.7656 10.7344L26.8515 2.82031C26.2578 2.60937 25.6328 2.5 25 2.5ZM9.99998 31.875C9.99998 34.6328 16.7187 37.5 25 37.5C33.2812 37.5 40 34.6328 40 31.875L38.8047 20.5156L27.6953 24.5312C26.8281 24.8438 25.914 25 25 25C24.0859 25 23.164 24.8438 22.3047 24.5312L11.1953 20.5156L9.99998 31.875Z" fill="#C5AEF3"/>
</g>
<defs>
<clipPath id="clip0_44_18">
<rect width="50" height="40" fill="white"/>
</clipPath>
</defs>
</svg>
