<svg width="44" height="50" viewBox="0 0 44 50" fill="none" xmlns="http://www.w3.org/2000/svg">
<path d="M4.34922 44.5793L0.421875 0.528076H43.5781L39.6469 44.5726L21.9738 49.4722L4.34922 44.5793Z" fill="#1572B6"/>
<path d="M22.0004 45.7273L36.2812 41.7679L39.641 4.12964H22.0004V45.7273Z" fill="#33A9DC"/>
<path d="M22.0004 20.0894H29.1496L29.6434 14.557H22.0004V9.15425H35.548L34.0902 25.4921H22.0004V20.0894Z" fill="white"/>
<path d="M22.0324 34.1207L22.0086 34.1277L15.9918 32.5031L15.607 28.1941H10.1844L10.941 36.6773L22.0078 39.7488L22.0324 39.7417V34.1207Z" fill="#EBEBEB"/>
<path d="M28.6902 25.2636L28.0395 32.4988L22.0137 34.1253V39.7464L33.0895 36.6769L34.1105 25.2636H28.6902Z" fill="white"/>
<path d="M22.0187 9.15425V14.557H8.96875L8.48516 9.15425H22.0187ZM22.0004 20.0894V25.4921L16.0594 25.4929L15.7047 21.5398L15.5758 20.0902L22.0004 20.0894Z" fill="#EBEBEB"/>
</svg>
