<svg width="40" height="50" viewBox="0 0 40 50" fill="none" xmlns="http://www.w3.org/2000/svg">
<path d="M18.2218 0H26.3976V37.8438C22.2035 38.6406 19.1242 38.959 15.78 38.959C5.79917 38.9586 0.596436 34.4469 0.596436 25.793C0.596436 17.4578 6.11792 12.043 14.6648 12.043C15.9921 12.043 17.0007 12.1492 18.2218 12.4676V0ZM18.2218 19.0488C17.2664 18.7305 16.4699 18.6246 15.4613 18.6246C11.3207 18.6246 8.9312 21.1727 8.9312 25.632C8.9312 29.9855 11.2144 32.3742 15.4085 32.3742C16.3105 32.3742 17.0539 32.3211 18.2218 32.1625V19.0488Z" fill="#092E20"/>
<path d="M39.4031 12.6254V31.5781C39.4031 38.1082 38.925 41.2402 37.4917 43.9477C36.1644 46.5496 34.4125 48.1949 30.8027 50L23.2109 46.3902C26.821 44.691 28.5726 43.2055 29.6875 40.9215C30.8554 38.5859 31.2277 35.8785 31.2277 28.7645V12.6254H39.4031ZM31.2273 0.0433594H39.4031V8.43164H31.2273V0.0433594Z" fill="#092E20"/>
</svg>
