<svg width="15" height="13" viewBox="0 0 15 13" fill="none" xmlns="http://www.w3.org/2000/svg">
<path d="M8.4375 -1.0625C8.4375 -1.58105 8.01855 -2 7.5 -2C6.98145 -2 6.5625 -1.58105 6.5625 -1.0625V6.04785L4.41211 3.89746C4.0459 3.53125 3.45117 3.53125 3.08496 3.89746C2.71875 4.26367 2.71875 4.8584 3.08496 5.22461L6.83496 8.97461C7.20117 9.34082 7.7959 9.34082 8.16211 8.97461L11.9121 5.22461C12.2783 4.8584 12.2783 4.26367 11.9121 3.89746C11.5459 3.53125 10.9512 3.53125 10.585 3.89746L8.4375 6.04785V-1.0625ZM1.875 8.3125C0.84082 8.3125 0 9.15332 0 10.1875V11.125C0 12.1592 0.84082 13 1.875 13H13.125C14.1592 13 15 12.1592 15 11.125V10.1875C15 9.15332 14.1592 8.3125 13.125 8.3125H10.1514L8.82422 9.63965C8.0918 10.3721 6.90527 10.3721 6.17285 9.63965L4.84863 8.3125H1.875ZM12.6562 9.95312C12.8427 9.95312 13.0216 10.0272 13.1534 10.1591C13.2853 10.2909 13.3594 10.4698 13.3594 10.6562C13.3594 10.8427 13.2853 11.0216 13.1534 11.1534C13.0216 11.2853 12.8427 11.3594 12.6562 11.3594C12.4698 11.3594 12.2909 11.2853 12.1591 11.1534C12.0272 11.0216 11.9531 10.8427 11.9531 10.6562C11.9531 10.4698 12.0272 10.2909 12.1591 10.1591C12.2909 10.0272 12.4698 9.95312 12.6562 9.95312Z" fill="black"/>
</svg>
