<svg width="44" height="50" viewBox="0 0 44 50" fill="none" xmlns="http://www.w3.org/2000/svg">
<path d="M4.43634 44.4829L0.528137 0.648926H43.4719L39.5594 44.4763L21.9738 49.3513L4.43634 44.4829Z" fill="#E44D26"/>
<path d="M22 45.6251L36.2102 41.6853L39.5535 4.23291H22V45.6251Z" fill="#F16529"/>
<path d="M22 20.4903H14.886L14.3945 14.9849H22V9.60908H8.51915L9.96915 25.8665H22V20.4903ZM22 34.4524L21.9762 34.4591L15.9891 32.8419L15.6067 28.5548H10.2094L10.9625 36.9958L21.9754 40.0528L22 40.0462V34.4524Z" fill="#EBEBEB"/>
<path d="M21.9813 20.4903V25.8665H28.6012L27.9774 32.8388L21.9813 34.4571V40.0505L33.0027 36.9958L34.3469 21.9341L34.4777 20.4903H21.9813ZM21.9813 9.60908V14.9849H34.9672L35.4488 9.60908H21.9813Z" fill="white"/>
</svg>
