<svg width="44" height="50" viewBox="0 0 44 50" fill="none" xmlns="http://www.w3.org/2000/svg">
<g clip-path="url(#clip0_20_92)">
<path d="M21.8847 13.7695C15.6738 13.7695 10.664 18.7793 10.664 24.9902C10.664 31.2012 15.6738 36.2109 21.8847 36.2109C28.0956 36.2109 33.1054 31.2012 33.1054 24.9902C33.1054 18.7793 28.0956 13.7695 21.8847 13.7695ZM21.8847 32.2852C17.871 32.2852 14.5898 29.0137 14.5898 24.9902C14.5898 20.9668 17.8613 17.6953 21.8847 17.6953C25.9081 17.6953 29.1796 20.9668 29.1796 24.9902C29.1796 29.0137 25.8984 32.2852 21.8847 32.2852ZM36.1816 13.3105C36.1816 14.7656 35.0097 15.9277 33.5644 15.9277C32.1093 15.9277 30.9472 14.7559 30.9472 13.3105C30.9472 11.8652 32.1191 10.6934 33.5644 10.6934C35.0097 10.6934 36.1816 11.8652 36.1816 13.3105ZM43.6132 15.9668C43.4472 12.4609 42.6464 9.35547 40.0781 6.79687C37.5195 4.23828 34.414 3.4375 30.9081 3.26172C27.2949 3.05664 16.4648 3.05664 12.8515 3.26172C9.35541 3.42773 6.24994 4.22852 3.68158 6.78711C1.11322 9.3457 0.322205 12.4512 0.146423 15.957C-0.0586548 19.5703 -0.0586548 30.4004 0.146423 34.0137C0.312439 37.5195 1.11322 40.625 3.68158 43.1836C6.24994 45.7422 9.34564 46.543 12.8515 46.7188C16.4648 46.9238 27.2949 46.9238 30.9081 46.7188C34.414 46.5527 37.5195 45.752 40.0781 43.1836C42.6367 40.625 43.4374 37.5195 43.6132 34.0137C43.8183 30.4004 43.8183 19.5801 43.6132 15.9668ZM38.9453 37.8906C38.1835 39.8047 36.7089 41.2793 34.7851 42.0508C31.9042 43.1934 25.0683 42.9297 21.8847 42.9297C18.7011 42.9297 11.8554 43.1836 8.98431 42.0508C7.07025 41.2891 5.59564 39.8145 4.82416 37.8906C3.68158 35.0098 3.94525 28.1738 3.94525 24.9902C3.94525 21.8066 3.69135 14.9609 4.82416 12.0898C5.58588 10.1758 7.06049 8.70117 8.98431 7.92969C11.8652 6.78711 18.7011 7.05078 21.8847 7.05078C25.0683 7.05078 31.914 6.79687 34.7851 7.92969C36.6992 8.69141 38.1738 10.166 38.9453 12.0898C40.0878 14.9707 39.8242 21.8066 39.8242 24.9902C39.8242 28.1738 40.0878 35.0195 38.9453 37.8906Z" fill="#A486DE"/>
</g>
<defs>
<clipPath id="clip0_20_92">
<rect width="43.75" height="50" fill="white"/>
</clipPath>
</defs>
</svg>
