<svg width="50" height="50" viewBox="0 0 50 50" fill="none" xmlns="http://www.w3.org/2000/svg">
<path d="M0.550049 0.550049H49.4501V49.4504H0.550049V0.550049Z" fill="#F0DB4F"/>
<path d="M45.4481 37.7875C45.0899 35.5567 43.6352 33.6829 39.3262 31.9356C37.8293 31.2477 36.1606 30.7551 35.6633 29.6208C35.4868 28.9606 35.4633 28.5887 35.5751 28.1891C35.8958 26.8922 37.4438 26.4879 38.6708 26.8598C39.461 27.1247 40.209 27.7336 40.6602 28.7051C42.7704 27.3387 42.7661 27.3477 44.2395 26.4086C43.7 25.5723 43.4122 25.1864 43.059 24.8286C41.7899 23.411 40.0606 22.6809 37.295 22.7368L35.8544 22.9231C34.4739 23.2719 33.1583 23.9965 32.3868 24.968C30.0719 27.5946 30.7321 32.1915 33.5489 34.0833C36.3239 36.1661 40.4004 36.6399 40.9211 38.5875C41.4278 40.9719 39.1688 41.7438 36.9235 41.4696C35.2688 41.1254 34.3485 40.2844 33.3536 38.7551C31.5223 39.8149 31.5223 39.8149 29.6395 40.8977C30.086 41.8739 30.5551 42.3157 31.3036 43.1614C34.8458 46.7543 43.7098 46.5778 45.2997 41.1395C45.3641 40.9528 45.7922 39.7075 45.4481 37.7875ZM27.1336 23.0247H22.5598L22.5411 34.8497C22.5411 37.3645 22.6711 39.67 22.2622 40.3766C21.593 41.7665 19.859 41.5942 19.0688 41.3247C18.2645 40.9293 17.8555 40.3672 17.3817 39.5727C17.2516 39.3446 17.154 39.168 17.1211 39.1543L13.4024 41.4317C14.0208 42.7008 14.9317 43.8024 16.0985 44.518C17.8415 45.5641 20.184 45.8848 22.634 45.3223C24.2286 44.8579 25.6043 43.8958 26.3247 42.4313C27.3661 40.5114 27.1426 38.1875 27.1333 35.6172C27.1567 31.4239 27.1336 27.2313 27.1336 23.0247Z" fill="#323330"/>
</svg>
