<svg width="89" height="58" viewBox="0 0 89 58" fill="none" xmlns="http://www.w3.org/2000/svg">
<path d="M0 10C0 4.47715 4.47715 0 10 0H30C35.5228 0 40 4.47715 40 10V30C40 35.5228 35.5228 40 30 40H10C4.47715 40 0 35.5228 0 30V10Z" fill="#DCCAFF"/>
<path d="M30.752 57L11.424 12.2H22.624L39.52 51.88H32.928L50.08 12.2H60.384L40.992 57H30.752Z" fill="black"/>
<path d="M72.3805 57.768C69.3512 57.768 66.5565 57.2133 63.9965 56.104C61.4792 54.952 59.4098 53.3307 57.7885 51.24L63.5485 44.328C64.7858 45.9493 66.0872 47.1867 67.4525 48.04C68.8178 48.8507 70.2898 49.256 71.8685 49.256C76.0925 49.256 78.2045 46.7813 78.2045 41.832V20.52H62.4605V12.2H88.5085V41.256C88.5085 46.8027 87.1432 50.9413 84.4125 53.672C81.6818 56.4027 77.6712 57.768 72.3805 57.768Z" fill="black"/>
</svg>
