<svg width="50" height="50" viewBox="0 0 50 50" fill="none" xmlns="http://www.w3.org/2000/svg">
<g clip-path="url(#clip0_44_22)">
<path d="M15.2929 37.5879L12.2754 34.5703C11.4453 33.7402 11.1523 32.5391 11.5234 31.4258C11.8164 30.5566 12.207 29.4238 12.6758 28.125H2.34372C1.50388 28.125 0.722629 27.6758 0.302707 26.9434C-0.117215 26.2109 -0.107449 25.3125 0.322238 24.5898L5.44919 15.9473C6.71872 13.8086 9.01364 12.5 11.4941 12.5H19.5312C19.7656 12.1094 20 11.748 20.2343 11.3965C28.2324 -0.400397 40.1465 -0.791021 47.2558 0.517573C48.3886 0.722651 49.2675 1.61132 49.4824 2.74414C50.791 9.86328 50.3906 21.7676 38.6035 29.7656C38.2617 30 37.8906 30.2344 37.5 30.4687V38.5059C37.5 40.9863 36.1914 43.291 34.0527 44.5508L25.4101 49.6777C24.6875 50.1074 23.789 50.1172 23.0566 49.6973C22.3242 49.2773 21.875 48.5059 21.875 47.6562V37.1875C20.498 37.666 19.2968 38.0566 18.3886 38.3496C17.2949 38.7012 16.1035 38.3984 15.2832 37.5879H15.2929ZM37.5 16.4062C38.536 16.4062 39.5295 15.9947 40.2621 15.2621C40.9947 14.5296 41.4062 13.536 41.4062 12.5C41.4062 11.464 40.9947 10.4704 40.2621 9.73786C39.5295 9.00529 38.536 8.59374 37.5 8.59374C36.464 8.59374 35.4704 9.00529 34.7378 9.73786C34.0053 10.4704 33.5937 11.464 33.5937 12.5C33.5937 13.536 34.0053 14.5296 34.7378 15.2621C35.4704 15.9947 36.464 16.4062 37.5 16.4062Z" fill="#C5AEF3"/>
</g>
<defs>
<clipPath id="clip0_44_22">
<rect width="50" height="50" fill="white"/>
</clipPath>
</defs>
</svg>
