<svg width="50" height="38" viewBox="0 0 50 38" fill="none" xmlns="http://www.w3.org/2000/svg">
<path fill-rule="evenodd" clip-rule="evenodd" d="M0.476196 15.9359C0.476196 16.2105 0.557056 16.3918 0.602368 16.568C0.897681 17.7137 1.53245 18.6969 2.28557 19.5937C3.35823 20.8719 4.6719 21.9008 6.0176 22.8684C7.18479 23.7074 8.37581 24.5277 9.54768 25.3605C9.74885 25.5035 9.93909 25.668 10.1574 25.8434C9.96956 25.9449 9.81331 26.0344 9.65081 26.1168C8.10432 26.9012 6.61643 27.7805 5.24495 28.8457C4.41838 29.4879 3.61917 30.1703 3.05471 31.0621C2.14651 32.4965 1.82502 34.0246 2.50198 35.6562C2.69963 36.1328 3.0012 36.5445 3.42659 36.8488C3.56448 36.9473 3.71917 37.0449 3.88049 37.0832C4.29377 37.1805 4.71487 37.2441 5.13323 37.3211L6.31799 37.3203C7.62815 37.2035 8.82073 36.7547 9.89846 36.0109C11.5828 34.8484 12.7176 33.2898 13.2055 31.2895C13.5602 29.8355 13.5746 28.3801 13.1567 26.9328C13.1167 26.7987 13.0705 26.6666 13.0184 26.5367C12.9676 26.4066 12.9078 26.2801 12.8375 26.118L15.5235 24.5734L15.5637 24.6078C15.5149 24.7676 15.4629 24.927 15.4188 25.0883C15.0996 26.2539 14.8875 27.4398 14.9637 28.6496C15.0449 29.9387 15.4047 31.1453 16.1594 32.2223C16.7696 33.0934 18.2235 33.1258 18.8719 32.2516C19.102 31.941 19.325 31.6164 19.4926 31.2699C19.9305 30.3656 20.336 29.4453 20.7543 28.5312L20.8274 28.3641C20.7973 28.7969 20.7621 29.177 20.7461 29.5574C20.7211 30.1516 20.7559 30.7422 20.959 31.3074C21.1328 31.791 21.4285 32.1523 21.9824 32.216C22.3614 32.2594 22.6633 32.0859 22.9418 31.866C23.3733 31.525 23.7309 31.0999 23.993 30.6164C24.7356 29.2527 25.4981 27.8973 26.1711 26.4992C26.8992 24.9871 27.536 23.4309 28.2121 21.893L28.3239 21.6203C28.4836 22.248 28.5949 22.8629 28.8 23.4449C29.0383 24.1203 29.3332 24.7797 29.6543 25.4207C29.8063 25.7234 29.7887 25.9199 29.5781 26.1738C28.6969 27.2363 27.8309 28.3117 26.9641 29.3859C26.7723 29.623 26.5813 29.8645 26.4215 30.1234C26.3246 30.287 26.2609 30.468 26.234 30.6562C26.2071 30.8295 26.2484 31.0065 26.3491 31.15C26.4498 31.2935 26.6022 31.3925 26.7742 31.4262C27.1215 31.501 27.4777 31.5263 27.8321 31.5016C29.0418 31.4125 30.1403 30.9879 31.1114 30.2684C32.3696 29.3363 32.7735 28.0645 32.4688 26.557C32.3864 26.148 32.2406 25.7504 32.0989 25.3563C32.0352 25.1785 32.0309 25.0539 32.1469 24.8883C33.1528 23.452 34.0121 21.9281 34.8114 20.3691C34.843 20.3078 34.8754 20.2465 34.9309 20.1809C35.1899 21.5285 35.5797 22.8273 36.2781 24.0059C35.9219 24.3492 35.5692 24.6605 35.25 25.0035C34.5473 25.759 33.9379 26.5793 33.6199 27.5797C33.4832 28.0109 33.3781 28.4492 33.4391 28.9098C33.5336 29.625 34.1196 30.0898 34.8231 29.927C36.3285 29.5785 37.6282 28.8691 38.5778 27.6125C39.2168 26.7664 39.275 25.8227 39.0074 24.834C38.934 24.5652 38.8469 24.3008 38.7531 23.9926C39.1246 23.8773 39.4867 23.7391 39.8614 23.6535C41.8063 23.2098 43.7301 23.2871 45.6043 23.9895C46.6985 24.3996 47.5824 25.0859 48.1067 26.1656C48.7469 27.4855 48.393 28.7379 47.1488 29.5723C47.0328 29.65 46.9 29.7113 46.8039 29.8086C46.7731 29.8443 46.7501 29.886 46.7363 29.931C46.7226 29.9761 46.7183 30.0235 46.7239 30.0703C46.7321 30.1184 46.859 30.1785 46.9321 30.1777C47.341 30.1746 47.6727 29.9602 47.991 29.7398C48.7887 29.1879 49.3707 28.4453 49.4961 27.4676L49.5207 27.3941L49.4907 26.7574C49.4785 26.7207 49.4996 26.6844 49.4969 26.6566C49.3274 25.2328 48.5668 24.1285 47.4606 23.2629C46.1793 22.2609 44.6664 21.8484 43.0664 21.7832C41.7688 21.7274 40.4728 21.9268 39.252 22.3703C38.9016 22.4973 38.5543 22.6477 38.202 22.7895C38.1547 22.7039 38.1039 22.6219 38.0621 22.5371C37.7004 21.7965 37.2621 21.0887 37.1653 20.2395C37.0965 19.6363 37.0121 19.034 37.1555 18.4375C37.2934 17.8637 37.4731 17.2996 37.6422 16.7336C37.7293 16.4422 37.668 16.2789 37.3899 16.1477C37.293 16.0993 37.1895 16.0654 37.0828 16.0469C36.3992 15.9477 35.725 16.0043 35.0629 16.1969C34.8285 16.2652 34.6582 16.3965 34.6063 16.6559C34.5766 16.8047 34.516 16.9473 34.4739 17.0941C34.3008 17.7047 34.1781 18.327 33.8985 18.9086C33.1977 20.3676 32.3977 21.7715 31.5789 23.1652C31.4903 23.3156 31.3969 23.4633 31.2852 23.6457C30.9977 23.0441 30.691 22.5043 30.5981 21.8715C30.493 21.1559 30.4102 20.4414 30.5883 19.7313C30.7207 19.2016 30.8938 18.6816 31.0532 18.159C31.1285 17.9105 31.0938 17.7801 30.8688 17.6492C30.7551 17.5832 30.6266 17.5246 30.4985 17.5055C29.7975 17.3987 29.0813 17.4573 28.4071 17.6766C28.1949 17.7453 28.0836 17.8824 28.0188 18.1012C27.8281 18.7465 27.6656 19.4074 27.3981 20.0211C26.3145 22.5055 25.1996 24.977 24.086 27.448C23.8535 27.9641 23.5813 28.4621 23.3192 28.9645C23.2528 29.0918 23.1559 29.2039 23.0731 29.3234C23.0067 29.2449 22.9809 29.191 22.9813 29.1371C22.9832 28.8195 22.9453 28.4926 23.0059 28.1855C23.1918 27.257 23.3973 26.3324 23.6223 25.4125C23.8059 24.6523 24.0196 23.8992 24.2231 23.1441C24.2914 22.8914 24.2926 22.6551 24.111 22.4426C23.8059 22.0867 23.1684 22.0086 22.7903 22.2828L22.6231 22.3773L22.6555 22.1078C22.7352 21.5301 22.7512 20.9543 22.5926 20.3852C22.3949 19.6758 21.8887 19.2676 21.1528 19.2902C20.8098 19.3008 20.4496 19.3594 20.1321 19.4844C18.7965 20.0078 17.7696 20.9348 16.8953 22.05C16.8143 22.1535 16.7139 22.2403 16.5996 22.3055C15.4696 22.932 14.336 23.5508 13.2028 24.1719L11.9414 24.8629C11.6031 24.5402 11.2957 24.2055 10.9469 23.9215C9.88167 23.0527 8.79924 22.2055 7.72659 21.3465C6.77581 20.5852 5.85471 19.7922 5.15002 18.784C4.62581 18.034 4.28792 17.2133 4.25549 16.2859C4.21448 15.1043 4.54963 14.0246 5.1512 13.0195C5.92073 11.7336 6.97034 10.7016 8.12424 9.7668C9.34495 8.77851 10.6653 7.93945 12.0336 7.17344C13.9481 6.10195 15.9172 5.15352 18.0285 4.52734C20.1934 3.88516 22.3899 3.51758 24.6555 3.77383C25.5461 3.87461 26.411 4.07852 27.2051 4.51406C27.8133 4.84727 28.3121 5.28359 28.5442 5.96562C28.7731 6.63672 28.766 7.3168 28.6074 7.99844C28.2852 9.37891 27.5293 10.5168 26.5781 11.5336C25.018 13.2004 23.1149 14.3352 20.9723 15.0848C19.7404 15.5163 18.4586 15.7897 17.1578 15.8984C16.0918 15.9879 15.0481 15.8934 14.0387 15.5227C13.3703 15.277 12.7883 14.9012 12.3203 14.3559C12.2367 14.2582 12.1297 14.1523 11.9739 14.2438C11.8211 14.3336 11.7942 14.4789 11.8453 14.6262C11.9309 14.8707 12.0098 15.1254 12.143 15.3441C12.4778 15.893 12.966 16.291 13.5035 16.6324C14.536 17.2891 15.6899 17.5098 16.8864 17.5609C18.702 17.6395 20.4735 17.3684 22.2199 16.8813C24.7133 16.1859 26.8813 14.9578 28.6199 13.0203C30.0676 11.407 31.1016 9.58633 31.3231 7.38789C31.4313 6.31484 31.316 5.26367 30.8137 4.28477C30.2688 3.22422 29.4024 2.43555 28.3664 1.89219C26.8578 1.10117 25.2297 0.640625 23.5492 0.640625H21.8657C19.8305 0.640625 17.8629 1.22383 15.9504 1.91953C14.5028 2.44648 13.0832 3.06836 11.7051 3.75664C8.70393 5.25625 5.90901 7.06445 3.61331 9.55078C2.46956 10.7895 1.5012 12.1562 0.944165 13.7656C0.776042 14.2461 0.631212 14.7344 0.510181 15.2289M11.3848 29.2965C11.2547 31.0383 10.4653 32.4504 9.17502 33.5941C8.44924 34.2371 7.61682 34.6949 6.64729 34.8559C6.29573 34.9141 5.93596 34.9281 5.59495 34.7824C5.10862 34.5746 4.99963 34.143 4.99026 33.6832C4.97581 32.9504 5.23245 32.2879 5.5844 31.6574C6.04377 30.8355 6.71721 30.209 7.43635 29.6238C8.56917 28.7016 9.79807 27.9211 11.0567 27.1844L11.1516 27.1453C11.3461 27.8641 11.4387 28.5738 11.3848 29.2965ZM21.2121 21.7266C21.1203 22.2828 21.0055 22.8395 20.843 23.3785C20.2813 25.2445 19.5598 27.0527 18.7797 28.8367C18.6356 29.1668 18.4258 29.468 18.2434 29.7809C18.2123 29.829 18.1752 29.8728 18.1328 29.9113C17.9071 30.1344 17.693 30.1227 17.5789 29.8309C17.4461 29.4918 17.3645 29.1289 17.2942 28.7699C17.2469 28.5289 17.2582 28.2758 17.2434 28.0289C17.2586 26.2734 17.7942 24.6781 18.7028 23.193C19.0774 22.5805 19.4852 21.9969 20.1082 21.6094C20.302 21.4889 20.5118 21.396 20.7313 21.3336C21.0633 21.2402 21.2672 21.3938 21.2121 21.7266ZM27.9168 30.2687L30.3266 27.4551C30.427 28.5 28.6508 30.5859 27.9168 30.2687ZM35.6133 28.3754C35.443 28.473 35.2574 28.5434 35.0828 28.6336C34.9231 28.7164 34.8703 28.6328 34.8656 28.4953C34.8633 28.4001 34.8755 28.3051 34.902 28.2137C35.2274 27.066 35.8262 26.0863 36.7172 25.2895L36.7797 25.2574C37.2035 26.443 36.7137 27.7449 35.6133 28.3754Z" fill="#CB6699"/>
</svg>
