<svg width="48" height="50" viewBox="0 0 48 50" fill="none" xmlns="http://www.w3.org/2000/svg">
<path d="M31.4609 31.4453C29.625 31.4062 28.0234 32.7734 27.8281 34.6094C27.8281 34.6875 27.8672 34.7266 27.9453 34.7266H34.9766C35.0547 34.7266 35.0938 34.6875 35.0938 34.6094C34.9375 32.7344 33.3359 31.3281 31.4609 31.4453Z" fill="#CF0A2C"/>
<path d="M46.5391 7.77344L31.5391 24.5703C31.3828 24.7656 31.0703 24.7656 30.875 24.6094L30.8359 24.5703L23.2578 16.7187C23.1016 16.5625 23.1016 16.3281 23.2188 16.1328L25.7578 12.8906C25.9141 12.6953 26.1875 12.6172 26.3828 12.7734C26.4219 12.8125 26.4609 12.8125 26.4609 12.8516L30.7578 17.5781C30.9141 17.7734 31.2266 17.7734 31.4219 17.6172L31.4609 17.5781L43.4531 1.28906C43.5703 1.13281 43.5312 0.9375 43.375 0.820312C43.3359 0.78125 43.2578 0.78125 43.1797 0.742188H1.22656C1.03125 0.78125 0.875 0.9375 0.875 1.13281V48.8672C0.875 49.0625 1.03125 49.2188 1.22656 49.2188H46.7734C46.9688 49.2188 47.125 49.0625 47.125 48.8672V8.00781C47.125 7.8125 46.9688 7.69531 46.8125 7.69531C46.6953 7.65625 46.6172 7.69531 46.5391 7.77344ZM13.8047 43.9062C10.7969 44.0234 7.86719 43.0078 5.64062 41.0156C5.48438 40.8594 5.44531 40.625 5.60156 40.4297L7.35937 37.9297C7.51562 37.7344 7.78906 37.6953 7.98438 37.8125L8.02344 37.8516C9.66406 39.375 11.7734 40.1953 14 40.1953C16.3438 40.1953 17.4766 39.1016 17.4766 37.9688C17.4766 34.4141 5.95312 36.875 5.95312 29.3359C5.95312 26.0156 8.84375 23.2422 13.5313 23.2422C16.2266 23.1641 18.8828 24.0625 20.9922 25.7812C21.1484 25.9375 21.1875 26.2109 21.0312 26.3672L19.1953 28.7891C19.0391 28.9844 18.7656 29.0234 18.5703 28.8672C17.0078 27.6172 15.0938 26.9531 13.1016 26.9922C11.2656 26.9922 10.25 27.8125 10.25 28.9844C10.25 32.1484 21.7344 30.0391 21.7344 37.5C21.7734 41.1328 19.1563 43.9062 13.8047 43.9062ZM38.9219 36.9531C38.9219 37.1875 38.7266 37.3438 38.5312 37.3438H28.0234C27.9453 37.3438 27.9062 37.3828 27.9062 37.4609C28.2578 39.4922 30.0938 40.8984 32.1641 40.7812C33.4922 40.7422 34.7422 40.3516 35.7969 39.5703C35.9531 39.4531 36.2266 39.4531 36.3438 39.6484L36.3828 39.6875L37.6719 41.5625C37.7891 41.7188 37.75 41.9531 37.5938 42.1094C35.9141 43.3594 33.8438 43.9844 31.7734 43.9062C27.2422 43.9062 23.8438 40.8594 23.8438 36.0938C23.7266 31.9141 27.0078 28.4375 31.1875 28.3203H31.5391C35.9531 28.3203 39 31.6406 39 36.4844L38.9219 36.9531Z" fill="#CF0A2C"/>
</svg>
