<svg width="50" height="30" viewBox="0 0 50 30" fill="none" xmlns="http://www.w3.org/2000/svg">
<path d="M25.0016 0.000732422C18.3348 0.000732422 14.1696 3.33276 12.5016 9.99956C15.0008 6.66714 17.9184 5.41753 21.2508 6.25073C23.1535 6.72495 24.5133 8.10464 26.0192 9.63355C28.4699 12.1207 31.3067 15 37.5016 15C44.168 15 48.3336 11.6675 50.0016 4.99917C47.502 8.33354 44.5848 9.58315 41.252 8.74995C39.3496 8.27534 37.9914 6.89605 36.4836 5.36714C34.0344 2.88003 31.1985 0.000732422 25.0016 0.000732422ZM12.5016 15C5.83518 15 1.66956 18.3324 0.00158691 25.0007C2.50081 21.6664 5.41799 20.4167 8.75081 21.25C10.6535 21.7246 12.0133 23.1039 13.5192 24.6328C15.9699 27.1199 18.8067 29.9992 25.0016 29.9992C31.668 29.9992 35.8336 26.6671 37.5016 20.0003C35.002 23.3328 32.0848 24.5824 28.752 23.7492C26.8496 23.275 25.4914 21.8953 23.9836 20.3664C21.5344 17.8792 18.6985 15 12.5016 15Z" fill="#38BDF8"/>
</svg>
