<svg width="50" height="57" viewBox="0 0 50 57" fill="none" xmlns="http://www.w3.org/2000/svg">
<path d="M25 28.5C28.7888 28.5 32.4224 26.9987 35.1015 24.3263C37.7806 21.6539 39.2857 18.0293 39.2857 14.25C39.2857 10.4707 37.7806 6.84612 35.1015 4.17373C32.4224 1.50134 28.7888 0 25 0C21.2112 0 17.5776 1.50134 14.8985 4.17373C12.2194 6.84612 10.7143 10.4707 10.7143 14.25C10.7143 18.0293 12.2194 21.6539 14.8985 24.3263C17.5776 26.9987 21.2112 28.5 25 28.5ZM19.8996 33.8438C8.90625 33.8438 0 42.7277 0 53.6936C0 55.5193 1.48438 57 3.31473 57H46.6853C48.5156 57 50 55.5193 50 53.6936C50 42.7277 41.0938 33.8438 30.1004 33.8438H19.8996Z" fill="#C5AEF3"/>
</svg>
