<svg width="50" height="50" viewBox="0 0 50 50" fill="none" xmlns="http://www.w3.org/2000/svg">
<g clip-path="url(#clip0_44_24)">
<path d="M34.375 31.25C43.0078 31.25 50 24.2578 50 15.625C50 14.1309 49.7852 12.6855 49.3945 11.3086C49.0918 10.2539 47.793 10.0195 47.0215 10.791L39.5215 18.291C39.2285 18.584 38.8281 18.75 38.418 18.75H32.8125C31.9531 18.75 31.25 18.0469 31.25 17.1875V11.582C31.25 11.1719 31.416 10.7715 31.709 10.4785L39.209 2.97852C39.9805 2.20703 39.7363 0.908203 38.6914 0.605469C37.3145 0.214844 35.8691 0 34.375 0C25.7422 0 18.75 6.99219 18.75 15.625C18.75 17.4902 19.082 19.2871 19.6777 20.9473L1.94336 38.6816C0.703125 39.9219 0 41.6113 0 43.3691C0 47.0313 2.96875 50 6.63086 50C8.38867 50 10.0781 49.2969 11.3184 48.0566L29.0527 30.3223C30.7129 30.9277 32.5098 31.25 34.375 31.25ZM7.8125 39.8438C8.4341 39.8438 9.03024 40.0907 9.46978 40.5302C9.90932 40.9698 10.1562 41.5659 10.1562 42.1875C10.1562 42.8091 9.90932 43.4052 9.46978 43.8448C9.03024 44.2843 8.4341 44.5312 7.8125 44.5312C7.1909 44.5312 6.59476 44.2843 6.15522 43.8448C5.71568 43.4052 5.46875 42.8091 5.46875 42.1875C5.46875 41.5659 5.71568 40.9698 6.15522 40.5302C6.59476 40.0907 7.1909 39.8438 7.8125 39.8438Z" fill="#C5AEF3"/>
</g>
<defs>
<clipPath id="clip0_44_24">
<rect width="50" height="50" fill="white"/>
</clipPath>
</defs>
</svg>
